<svg height="448pt" viewBox="-48 0 448 448.00052" width="448pt" xmlns="http://www.w3.org/2000/svg"><path d="m145.015625 424c3.648437 14.128906 16.390625 24 30.984375 24s27.335938-9.871094 30.984375-24zm0 0"/><path d="m352 389.414062-14.847656-5.933593c-15.226563-6.03125-25.203125-20.769531-25.152344-37.144531v-162.335938c.074219-63.460938-43.847656-118.5-105.742188-132.511719-4.914062-1.171875-9.894531-2.042969-14.914062-2.609375-38.476562-4.304687-76.96875 7.972656-105.851562 33.757813-28.882813 25.785156-45.425782 62.644531-45.492188 101.363281v162.335938c.050781 16.375-9.925781 31.113281-25.152344 37.144531l-14.847656 5.933593v18.585938h352zm0 0"/><path d="m152 33.910156c.679688-.109375 1.390625-.140625 2.070312-.246094 2.507813-.367187 5.027344-.679687 7.578126-.921874 1.320312-.117188 2.648437-.246094 4-.335938 2.761718-.183594 5.535156-.285156 8.320312-.328125.6875 0 1.359375-.078125 2.046875-.078125s1.449219.078125 2.183594.089844c2.703125.039062 5.402343.132812 8.089843.316406 1.414063.089844 2.808594.21875 4.207032.355469 2.398437.230469 4.800781.527343 7.199218.871093.800782.109376 1.601563.160157 2.328126.277344v-9.910156c0-13.253906-10.746094-24-24-24-13.253907 0-24 10.746094-24 24zm0 0"/></svg>